<svg width="296" height="316" viewBox="0 0 296 316" fill="none" xmlns="http://www.w3.org/2000/svg">
<path d="M91.6409 81.6797C97.0069 81.6797 101.726 83.1077 105.775 85.9756C109.874 88.8795 111.93 92.9458 111.93 98.1113V122.064C111.93 124.98 112.616 127.062 113.89 128.415C115.158 129.762 117.099 130.483 119.821 130.483H176.203L176.227 130.485C185.674 131.288 193.734 133.398 200.39 136.833L200.399 136.838C216.584 145.537 224.648 160.622 224.648 181.945V217.874C224.648 223.04 222.592 227.107 218.492 230.011C214.444 232.879 209.725 234.306 204.359 234.306C198.993 234.306 194.274 232.879 190.225 230.011C186.125 227.107 184.07 223.04 184.07 217.874V181.945C184.07 179.03 183.383 176.948 182.11 175.595C180.842 174.248 178.901 173.526 176.179 173.526H119.821C109.784 173.526 101.2 171.388 94.097 167.083C86.9917 162.776 81.4036 156.323 77.3245 147.756L77.3206 147.748C74.0923 140.686 72.1088 132.134 71.3538 122.106L71.3519 122.085V98.1113C71.352 92.9459 73.4077 88.8795 77.5071 85.9756C81.5559 83.1077 86.275 81.6797 91.6409 81.6797ZM91.6409 190.364C97.2462 190.364 101.993 192.526 105.85 196.819L106.224 197.207C110.027 201.236 111.93 206.14 111.93 211.886C111.93 217.817 109.903 222.945 105.859 227.242C101.996 231.347 97.2453 233.408 91.6409 233.408C86.0374 233.408 81.198 231.347 77.1507 227.252L77.1409 227.243L77.1321 227.232C73.2794 222.934 71.3519 217.809 71.3519 211.886C71.352 205.963 73.2796 200.932 77.1409 196.829C81.1857 192.532 86.028 190.364 91.6409 190.364Z" fill="white" stroke="white" stroke-width="1.12641"/>
<rect x="17.358" y="18.1012" width="261.284" height="279.784" rx="74" stroke="#D3D3D3" stroke-width="34.716"/>
</svg>
