<svg width="287" height="360" viewBox="0 0 287 360" fill="none" xmlns="http://www.w3.org/2000/svg">
<path d="M250.429 72.0293L192.725 72.1953L285.051 2.18262L250.429 72.0293Z" fill="#BCBCBC" stroke="#121312"/>
<path d="M286.008 118.667L251.373 72.4756L285.997 2.63184L286.008 118.667Z" fill="white" stroke="#121312"/>
<path d="M250.429 191.698L192.725 191.864L285.051 121.852L250.429 191.698Z" fill="#BCBCBC" stroke="#121312"/>
<path d="M286.008 238.336L251.373 192.145L285.997 122.301L286.008 238.336Z" fill="white" stroke="#121312"/>
<path d="M154.932 144.229L97.2276 144.395L189.559 74.3818L154.932 144.229Z" fill="#BCBCBC" stroke="#121312"/>
<path d="M190.516 190.866L155.882 144.675L190.506 74.8311L190.516 190.866Z" fill="white" stroke="#121312"/>
<path d="M59.6867 216.428L1.98166 216.587L94.3147 146.581L59.6867 216.428Z" fill="#BCBCBC" stroke="#121312"/>
<path d="M95.2699 263.06L60.6351 216.874L95.2591 147.03L95.2699 263.06Z" fill="white" stroke="#121312"/>
<path d="M154.901 263.897L97.1964 264.057L189.523 194.051L154.901 263.897Z" fill="#BCBCBC" stroke="#121312"/>
<path d="M190.487 310.53L155.851 264.344L190.475 194.5L190.487 310.53Z" fill="white" stroke="#121312"/>
<path d="M250.399 311.367L192.687 311.526L285.02 241.521L250.399 311.367Z" fill="#BCBCBC" stroke="#121312"/>
<path d="M285.977 357.999L251.342 311.813L285.959 241.972L285.977 357.999Z" fill="white" stroke="#121312"/>
</svg>
